<?xml version="1.0" encoding="UTF-8"?>
<svg xmlns="http://www.w3.org/2000/svg" xmlns:xlink="http://www.w3.org/1999/xlink" width="100pt" height="100pt" viewBox="0 0 100 100" version="1.1">
<g id="surface1">
<path style=" stroke:none;fill-rule:evenodd;fill:rgb(90.196078%,90.196078%,90.196078%);fill-opacity:1;" d="M 50.003906 87.011719 L 73.039062 87.011719 C 73.695312 87.011719 74.226562 86.640625 74.226562 86.191406 L 74.226562 81.640625 C 74.226562 81.191406 73.664062 80.996094 73.039062 80.820312 C 69.972656 79.960938 66.09375 79.324219 61.835938 78.921875 L 38.171875 78.921875 C 33.914062 79.324219 30.03125 79.960938 26.964844 80.820312 C 26.339844 80.996094 25.78125 81.191406 25.78125 81.640625 L 25.78125 86.191406 C 25.78125 86.640625 26.3125 87.011719 26.964844 87.011719 Z M 50.003906 87.011719 "/>
<path style=" stroke:none;fill-rule:evenodd;fill:rgb(70.196078%,70.196078%,70.196078%);fill-opacity:1;" d="M 39.089844 80.769531 L 60.914062 80.769531 C 61.417969 80.769531 61.835938 80.355469 61.835938 79.851562 L 61.835938 74.824219 L 49.984375 71.667969 L 38.171875 74.8125 L 38.171875 79.851562 C 38.171875 80.355469 38.585938 80.769531 39.089844 80.769531 Z M 39.089844 80.769531 "/>
<path style=" stroke:none;fill-rule:evenodd;fill:rgb(38.039216%,42.745098%,50.196078%);fill-opacity:1;" d="M 38.171875 74.8125 C 46.0625 74.613281 53.945312 74.613281 61.832031 74.824219 C 71.652344 75.078125 81.460938 75.648438 91.253906 76.527344 C 95.167969 76.875 98.535156 73.695312 98.535156 69.789062 L 98.535156 19.949219 C 98.535156 16.042969 95.167969 12.859375 91.253906 13.207031 C 63.800781 15.671875 36.207031 15.714844 8.753906 13.207031 C 4.832031 12.855469 1.464844 16.035156 1.464844 19.949219 L 1.464844 69.789062 C 1.464844 73.699219 4.832031 76.882812 8.753906 76.527344 C 18.542969 75.628906 28.355469 75.0625 38.171875 74.8125 Z M 38.171875 74.8125 "/>
<path style=" stroke:none;fill-rule:evenodd;fill:rgb(72.941176%,87.843137%,94.901961%);fill-opacity:1;" d="M 8.230469 70.773438 C 35.574219 68.277344 63.414062 68.234375 91.769531 70.773438 C 92.308594 70.820312 92.757812 70.328125 92.757812 69.789062 L 92.757812 19.949219 C 92.757812 19.40625 92.308594 18.914062 91.769531 18.964844 C 63.414062 21.503906 35.574219 21.457031 8.230469 18.964844 C 7.6875 18.914062 7.242188 19.40625 7.242188 19.949219 L 7.242188 69.789062 C 7.242188 70.328125 7.6875 70.820312 8.230469 70.773438 Z M 8.230469 70.773438 "/>
<path style=" stroke:none;fill-rule:evenodd;fill:rgb(92.156863%,34.117647%,34.117647%);fill-opacity:1;" d="M 39.449219 55.664062 L 39.449219 51.710938 C 39.449219 51.113281 38.960938 50.628906 38.371094 50.628906 L 34.410156 50.628906 C 33.8125 50.628906 33.332031 51.113281 33.332031 51.710938 L 33.332031 55.664062 C 33.332031 56.261719 33.8125 56.746094 34.410156 56.746094 L 38.371094 56.746094 C 38.960938 56.746094 39.449219 56.261719 39.449219 55.664062 Z M 39.449219 55.664062 "/>
<path style=" stroke:none;fill-rule:evenodd;fill:rgb(90.980392%,78.039216%,27.058824%);fill-opacity:1;" d="M 51.972656 56.746094 C 52.570312 56.746094 53.058594 56.261719 53.058594 55.664062 L 53.058594 51.710938 C 53.058594 51.113281 52.570312 50.628906 51.972656 50.628906 L 48.019531 50.628906 C 47.421875 50.628906 46.933594 51.113281 46.933594 51.710938 L 46.933594 55.664062 C 46.933594 56.261719 47.421875 56.746094 48.019531 56.746094 Z M 51.972656 56.746094 "/>
<path style=" stroke:none;fill-rule:evenodd;fill:rgb(33.333333%,81.176471%,38.823529%);fill-opacity:1;" d="M 61.628906 56.746094 L 65.582031 56.746094 C 66.179688 56.746094 66.667969 56.261719 66.667969 55.664062 L 66.667969 51.710938 C 66.667969 51.113281 66.179688 50.628906 65.582031 50.628906 L 61.628906 50.628906 C 61.03125 50.628906 60.542969 51.113281 60.542969 51.710938 L 60.542969 55.664062 C 60.542969 56.261719 61.03125 56.746094 61.628906 56.746094 Z M 61.628906 56.746094 "/>
<path style=" stroke:none;fill-rule:evenodd;fill:rgb(24.705882%,29.803922%,38.823529%);fill-opacity:1;" d="M 7.242188 44.867188 C 7.242188 32.871094 7.242188 24.859375 7.242188 19.949219 C 7.242188 10.265625 7.242188 12.621094 7.242188 20.296875 Z M 7.242188 70.132812 C 7.242188 95.417969 7.242188 40.117188 7.242188 20.296875 L 7.242188 19.949219 C 7.242188 19.875 7.25 19.804688 7.265625 19.730469 C 7.527344 16.566406 9.996094 13.988281 13.085938 13.585938 C 11.640625 13.46875 10.195312 13.339844 8.753906 13.207031 C 4.832031 12.855469 1.464844 16.035156 1.464844 19.949219 L 1.464844 69.789062 C 1.464844 73.183594 4.003906 76.035156 7.242188 76.488281 C 7.730469 76.554688 8.234375 76.570312 8.753906 76.527344 C 9.574219 76.449219 10.394531 76.378906 11.214844 76.304688 C 8.886719 75.242188 7.242188 72.863281 7.242188 70.132812 Z M 7.242188 70.132812 "/>
<path style=" stroke:none;fill-rule:evenodd;fill:rgb(57.647059%,72.941176%,94.117647%);fill-opacity:1;" d="M 13.296875 69.789062 L 13.296875 19.949219 C 13.296875 19.765625 13.300781 19.578125 13.316406 19.398438 C 11.617188 19.261719 9.921875 19.117188 8.230469 18.964844 C 7.757812 18.917969 7.359375 19.285156 7.265625 19.734375 C 7.25 19.804688 7.242188 19.875 7.242188 19.949219 L 7.242188 69.789062 C 7.242188 70.328125 7.6875 70.824219 8.230469 70.773438 C 9.921875 70.617188 11.617188 70.472656 13.316406 70.335938 C 13.300781 70.152344 13.296875 69.972656 13.296875 69.789062 Z M 13.296875 69.789062 "/>
<path style=" stroke:none;fill-rule:evenodd;fill:rgb(53.333333%,54.509804%,60%);fill-opacity:1;" d="M 42.789062 78.921875 L 42.789062 74.71875 C 41.25 74.738281 39.710938 74.773438 38.171875 74.8125 L 38.171875 79.851562 C 38.171875 80.355469 38.585938 80.769531 39.089844 80.769531 L 43.703125 80.769531 C 43.199219 80.769531 42.789062 80.355469 42.789062 79.851562 Z M 42.789062 78.921875 "/>
<path style=" stroke:none;fill-rule:evenodd;fill:rgb(70.196078%,70.196078%,70.196078%);fill-opacity:1;" d="M 26.964844 80.820312 C 26.339844 80.996094 25.78125 81.191406 25.78125 81.640625 L 25.78125 86.191406 C 25.78125 86.640625 26.3125 87.011719 26.964844 87.011719 L 33.78125 87.011719 C 33.128906 87.011719 32.589844 86.640625 32.589844 86.191406 L 32.589844 81.640625 C 32.589844 81.191406 33.15625 80.996094 33.78125 80.820312 C 35.105469 80.449219 36.578125 80.125 38.171875 79.835938 L 38.171875 78.921875 C 33.914062 79.328125 30.03125 79.964844 26.964844 80.820312 Z M 26.964844 80.820312 "/>
<path style=" stroke:none;fill-rule:nonzero;fill:rgb(0%,0%,0%);fill-opacity:1;" d="M 60.289062 43.027344 C 60.53125 43.242188 60.792969 43.351562 61.082031 43.351562 C 61.371094 43.351562 61.625 43.242188 61.835938 43.027344 C 62.042969 42.808594 62.148438 42.554688 62.148438 42.261719 L 62.148438 35.507812 L 63.59375 35.507812 C 63.859375 35.507812 64.09375 35.40625 64.285156 35.214844 C 64.480469 35.019531 64.582031 34.792969 64.582031 34.523438 C 64.582031 34.238281 64.480469 34 64.285156 33.808594 C 64.09375 33.609375 63.859375 33.507812 63.59375 33.507812 L 58.519531 33.507812 C 58.253906 33.507812 58.019531 33.609375 57.832031 33.808594 C 57.644531 34 57.550781 34.234375 57.550781 34.492188 C 57.550781 34.78125 57.648438 35.019531 57.847656 35.207031 C 58.042969 35.394531 58.261719 35.492188 58.507812 35.492188 L 59.964844 35.492188 L 59.964844 42.261719 C 59.964844 42.554688 60.074219 42.808594 60.289062 43.027344 Z M 60.289062 43.027344 "/>
<path style=" stroke:none;fill-rule:nonzero;fill:rgb(0%,0%,0%);fill-opacity:1;" d="M 83.292969 33.996094 L 81.257812 39.507812 L 79.21875 33.996094 C 79.03125 33.519531 78.691406 33.28125 78.207031 33.28125 C 77.902344 33.28125 77.636719 33.386719 77.414062 33.597656 C 77.199219 33.808594 77.085938 34.058594 77.085938 34.34375 C 77.085938 34.445312 77.09375 34.53125 77.109375 34.617188 C 77.132812 34.691406 77.152344 34.777344 77.183594 34.859375 L 80.175781 42.367188 C 80.324219 42.714844 80.476562 42.953125 80.621094 43.070312 C 80.765625 43.1875 80.992188 43.242188 81.296875 43.242188 C 81.753906 43.242188 82.097656 42.953125 82.335938 42.367188 L 85.332031 34.859375 C 85.394531 34.691406 85.425781 34.527344 85.425781 34.34375 C 85.425781 34.050781 85.316406 33.796875 85.097656 33.59375 C 84.882812 33.382812 84.617188 33.28125 84.300781 33.28125 C 83.808594 33.28125 83.472656 33.519531 83.292969 33.996094 Z M 83.292969 33.996094 "/>
<path style=" stroke:none;fill-rule:nonzero;fill:rgb(0%,0%,0%);fill-opacity:1;" d="M 71.40625 42.757812 C 71.652344 42.976562 71.910156 43.082031 72.199219 43.082031 C 72.488281 43.082031 72.742188 42.976562 72.953125 42.757812 C 73.160156 42.542969 73.265625 42.285156 73.265625 41.992188 L 73.265625 35.234375 L 74.710938 35.234375 C 74.980469 35.234375 75.210938 35.136719 75.40625 34.945312 C 75.597656 34.753906 75.699219 34.523438 75.699219 34.25 C 75.699219 33.972656 75.597656 33.734375 75.40625 33.535156 C 75.210938 33.335938 74.976562 33.238281 74.710938 33.238281 L 69.636719 33.238281 C 69.371094 33.238281 69.136719 33.335938 68.949219 33.535156 C 68.761719 33.734375 68.667969 33.964844 68.667969 34.222656 C 68.667969 34.511719 68.765625 34.75 68.964844 34.9375 C 69.160156 35.125 69.382812 35.222656 69.625 35.222656 L 71.082031 35.222656 L 71.082031 41.992188 C 71.078125 42.285156 71.191406 42.542969 71.40625 42.757812 Z M 71.40625 42.757812 "/>
<path style=" stroke:none;fill-rule:nonzero;fill:rgb(0%,0%,0%);fill-opacity:1;" d="M 56.039062 42.769531 C 56.253906 42.539062 56.363281 42.277344 56.363281 41.992188 C 56.363281 41.730469 56.269531 41.492188 56.074219 41.289062 L 53.921875 38.929688 C 54.476562 38.820312 54.890625 38.675781 55.164062 38.5 C 55.882812 38 56.242188 37.261719 56.242188 36.277344 C 56.242188 35.382812 55.921875 34.660156 55.289062 34.097656 C 54.652344 33.53125 53.851562 33.253906 52.882812 33.253906 L 50.375 33.253906 C 50.058594 33.253906 49.792969 33.359375 49.578125 33.574219 C 49.359375 33.792969 49.25 34.0625 49.25 34.382812 L 49.25 41.964844 C 49.25 42.277344 49.359375 42.542969 49.578125 42.757812 C 49.820312 42.976562 50.085938 43.082031 50.375 43.082031 C 50.679688 43.082031 50.933594 42.980469 51.144531 42.769531 C 51.347656 42.566406 51.453125 42.304688 51.453125 42.003906 L 51.453125 39.050781 L 54.375 42.621094 C 54.632812 42.929688 54.917969 43.082031 55.238281 43.082031 C 55.550781 43.082031 55.808594 42.980469 56.039062 42.769531 Z M 52.894531 37.449219 L 51.464844 37.449219 L 51.464844 35.246094 L 52.863281 35.246094 C 53.207031 35.246094 53.492188 35.355469 53.707031 35.574219 C 53.9375 35.777344 54.054688 36.03125 54.054688 36.324219 C 54.054688 36.636719 53.9375 36.894531 53.710938 37.117188 C 53.480469 37.335938 53.207031 37.449219 52.894531 37.449219 Z M 52.894531 37.449219 "/>
<path style=" stroke:none;fill-rule:nonzero;fill:rgb(0%,0%,0%);fill-opacity:1;" d="M 20.984375 41.304688 C 20.738281 41.492188 20.425781 41.585938 20.054688 41.585938 C 19.683594 41.585938 19.214844 41.480469 18.636719 41.277344 C 18.160156 41.105469 17.839844 41.015625 17.679688 41.015625 C 17.410156 41.015625 17.1875 41.117188 17.003906 41.316406 C 16.828125 41.515625 16.734375 41.757812 16.734375 42.058594 L 16.734375 42.125 C 16.734375 42.566406 17.042969 42.933594 17.652344 43.21875 C 18.269531 43.507812 19.03125 43.652344 19.945312 43.652344 C 21.070312 43.652344 21.972656 43.351562 22.652344 42.753906 C 23.332031 42.152344 23.671875 41.378906 23.671875 40.425781 C 23.671875 39.414062 23.273438 38.660156 22.46875 38.171875 C 22.050781 37.902344 21.40625 37.652344 20.554688 37.421875 C 19.894531 37.234375 19.503906 37.089844 19.371094 36.988281 C 19.179688 36.835938 19.082031 36.667969 19.082031 36.492188 C 19.082031 36.253906 19.191406 36.058594 19.402344 35.90625 C 19.613281 35.746094 19.875 35.667969 20.179688 35.667969 C 20.355469 35.667969 20.617188 35.710938 20.945312 35.800781 L 21.335938 35.9375 C 21.660156 36.042969 21.898438 36.097656 22.054688 36.097656 C 22.320312 36.097656 22.546875 36 22.734375 35.792969 C 22.917969 35.59375 23.011719 35.351562 23.011719 35.074219 C 23.011719 34.660156 22.757812 34.316406 22.25 34.039062 C 21.738281 33.769531 21.109375 33.632812 20.355469 33.632812 C 19.320312 33.632812 18.460938 33.917969 17.792969 34.492188 C 17.117188 35.070312 16.777344 35.800781 16.777344 36.691406 C 16.777344 37.570312 17.109375 38.230469 17.773438 38.660156 C 18.117188 38.886719 18.75 39.125 19.664062 39.390625 C 20.253906 39.566406 20.652344 39.699219 20.851562 39.792969 C 21.046875 39.882812 21.183594 39.988281 21.257812 40.117188 C 21.328125 40.242188 21.363281 40.390625 21.363281 40.5625 C 21.363281 40.867188 21.242188 41.109375 20.984375 41.304688 Z M 20.984375 41.304688 "/>
<path style=" stroke:none;fill-rule:nonzero;fill:rgb(0%,0%,0%);fill-opacity:1;" d="M 44.863281 41.398438 L 45.257812 42.621094 C 45.429688 43.121094 45.761719 43.363281 46.253906 43.363281 C 46.554688 43.363281 46.800781 43.273438 47.011719 43.097656 C 47.230469 42.886719 47.335938 42.664062 47.335938 42.433594 C 47.335938 42.203125 47.300781 41.984375 47.230469 41.785156 L 44.582031 34.597656 C 44.289062 33.792969 43.761719 33.386719 43.003906 33.386719 C 42.238281 33.386719 41.710938 33.792969 41.414062 34.597656 L 38.730469 41.777344 C 38.664062 41.9375 38.636719 42.117188 38.636719 42.3125 C 38.636719 42.609375 38.734375 42.859375 38.945312 43.070312 C 39.152344 43.273438 39.40625 43.378906 39.710938 43.378906 C 40.265625 43.378906 40.613281 43.125 40.769531 42.621094 L 41.128906 41.398438 Z M 43.003906 35.648438 L 44.207031 39.441406 L 41.746094 39.429688 Z M 43.003906 35.648438 "/>
<path style=" stroke:none;fill-rule:nonzero;fill:rgb(0%,0%,0%);fill-opacity:1;" d="M 32.292969 42.609375 L 33.914062 37.09375 L 34.695312 42.449219 C 34.800781 43.140625 35.171875 43.484375 35.800781 43.484375 C 36.117188 43.484375 36.378906 43.378906 36.582031 43.167969 C 36.789062 42.957031 36.890625 42.6875 36.890625 42.355469 L 36.863281 42.140625 L 35.613281 34.691406 C 35.546875 34.359375 35.378906 34.085938 35.105469 33.867188 C 34.832031 33.648438 34.515625 33.535156 34.167969 33.535156 C 33.421875 33.535156 32.9375 33.902344 32.722656 34.625 L 31.171875 39.765625 L 29.648438 34.625 C 29.410156 33.902344 28.929688 33.535156 28.207031 33.535156 C 27.84375 33.535156 27.523438 33.648438 27.246094 33.875 C 26.964844 34.09375 26.800781 34.371094 26.75 34.691406 L 25.492188 42.140625 C 25.476562 42.183594 25.464844 42.257812 25.464844 42.355469 C 25.464844 42.675781 25.570312 42.949219 25.773438 43.164062 C 25.984375 43.378906 26.246094 43.484375 26.570312 43.484375 C 27.203125 43.484375 27.5625 43.140625 27.664062 42.449219 L 28.433594 37.09375 L 30.054688 42.609375 C 30.242188 43.195312 30.613281 43.484375 31.171875 43.484375 C 31.503906 43.484375 31.75 43.421875 31.910156 43.296875 C 32.066406 43.167969 32.191406 42.941406 32.292969 42.609375 Z M 32.292969 42.609375 "/>
<path style=" stroke:none;fill-rule:nonzero;fill:rgb(0%,0%,0%);fill-opacity:1;" d="M 92.757812 43.007812 C 93.566406 43.007812 94.21875 42.351562 94.21875 41.542969 L 94.21875 19.949219 C 94.21875 19.25 93.925781 18.582031 93.40625 18.109375 C 92.921875 17.667969 92.277344 17.445312 91.640625 17.503906 C 63.75 20.003906 35.730469 20.003906 8.363281 17.503906 C 7.714844 17.445312 7.082031 17.660156 6.589844 18.109375 C 6.074219 18.578125 5.78125 19.25 5.78125 19.949219 L 5.78125 69.789062 C 5.78125 70.488281 6.074219 71.15625 6.589844 71.625 C 7.027344 72.027344 7.574219 72.242188 8.148438 72.242188 C 8.21875 72.242188 8.292969 72.238281 8.363281 72.230469 C 35.730469 69.734375 63.75 69.734375 91.636719 72.230469 C 92.277344 72.289062 92.921875 72.070312 93.40625 71.625 C 93.925781 71.15625 94.21875 70.484375 94.21875 69.789062 L 94.21875 50.765625 C 94.21875 49.957031 93.566406 49.300781 92.757812 49.300781 C 91.945312 49.300781 91.292969 49.957031 91.292969 50.765625 L 91.292969 69.261719 C 63.636719 66.820312 35.859375 66.820312 8.707031 69.257812 L 8.707031 20.476562 C 35.859375 22.917969 63.632812 22.917969 91.292969 20.476562 L 91.292969 41.542969 C 91.292969 42.351562 91.945312 43.007812 92.757812 43.007812 Z M 92.757812 43.007812 "/>
<path style=" stroke:none;fill-rule:nonzero;fill:rgb(0%,0%,0%);fill-opacity:1;" d="M 34.410156 58.210938 L 38.371094 58.210938 C 39.773438 58.210938 40.914062 57.066406 40.914062 55.664062 L 40.914062 51.710938 C 40.914062 50.308594 39.773438 49.164062 38.371094 49.164062 L 34.410156 49.164062 C 33.007812 49.164062 31.867188 50.308594 31.867188 51.710938 L 31.867188 55.664062 C 31.867188 57.066406 33.007812 58.210938 34.410156 58.210938 Z M 34.796875 52.09375 L 37.984375 52.09375 L 37.984375 55.285156 L 34.796875 55.285156 Z M 34.796875 52.09375 "/>
<path style=" stroke:none;fill-rule:nonzero;fill:rgb(0%,0%,0%);fill-opacity:1;" d="M 48.019531 58.210938 L 51.972656 58.210938 C 53.378906 58.210938 54.523438 57.066406 54.523438 55.664062 L 54.523438 51.710938 C 54.523438 50.308594 53.378906 49.164062 51.972656 49.164062 L 48.019531 49.164062 C 46.617188 49.164062 45.472656 50.308594 45.472656 51.710938 L 45.472656 55.664062 C 45.472656 57.066406 46.617188 58.210938 48.019531 58.210938 Z M 48.398438 52.09375 L 51.59375 52.09375 L 51.59375 55.285156 L 48.398438 55.285156 Z M 48.398438 52.09375 "/>
<path style=" stroke:none;fill-rule:nonzero;fill:rgb(0%,0%,0%);fill-opacity:1;" d="M 61.628906 58.210938 L 65.582031 58.210938 C 66.988281 58.210938 68.132812 57.066406 68.132812 55.664062 L 68.132812 51.710938 C 68.132812 50.308594 66.988281 49.164062 65.582031 49.164062 L 61.628906 49.164062 C 60.222656 49.164062 59.082031 50.308594 59.082031 51.710938 L 59.082031 55.664062 C 59.082031 57.066406 60.222656 58.210938 61.628906 58.210938 Z M 62.007812 52.09375 L 65.203125 52.09375 L 65.203125 55.285156 L 62.007812 55.285156 Z M 62.007812 52.09375 "/>
<path style=" stroke:none;fill-rule:nonzero;fill:rgb(0%,0%,0%);fill-opacity:1;" d="M 97.304688 13.859375 C 95.621094 12.320312 93.371094 11.550781 91.125 11.75 C 77.863281 12.9375 65.570312 13.539062 53.546875 13.59375 C 52.738281 13.597656 52.085938 14.253906 52.089844 15.0625 C 52.09375 15.871094 52.746094 16.519531 53.550781 16.519531 L 53.558594 16.519531 C 65.667969 16.46875 78.042969 15.863281 91.386719 14.667969 C 92.832031 14.539062 94.234375 15.019531 95.328125 16.019531 C 96.4375 17.035156 97.074219 18.464844 97.074219 19.949219 L 97.074219 69.789062 C 97.074219 71.269531 96.4375 72.703125 95.328125 73.714844 C 94.234375 74.71875 92.832031 75.199219 91.386719 75.070312 C 81.582031 74.1875 71.652344 73.613281 61.875 73.359375 C 54.066406 73.152344 46.082031 73.148438 38.132812 73.347656 C 28.296875 73.597656 18.367188 74.175781 8.617188 75.070312 C 7.171875 75.199219 5.769531 74.722656 4.671875 73.71875 C 3.5625 72.707031 2.929688 71.273438 2.929688 69.789062 L 2.929688 19.949219 C 2.929688 18.460938 3.5625 17.027344 4.671875 16.015625 C 5.769531 15.015625 7.167969 14.535156 8.617188 14.667969 C 20.855469 15.785156 33.285156 16.390625 46.621094 16.519531 L 46.636719 16.519531 C 47.4375 16.519531 48.09375 15.875 48.101562 15.070312 C 48.109375 14.261719 47.460938 13.601562 46.652344 13.59375 C 33.394531 13.464844 21.042969 12.863281 8.882812 11.75 C 6.632812 11.546875 4.382812 12.316406 2.695312 13.851562 C 0.984375 15.421875 0 17.640625 0 19.949219 L 0 69.789062 C 0 72.09375 0.984375 74.316406 2.695312 75.882812 C 4.203125 77.257812 6.164062 78.015625 8.171875 78.015625 C 8.40625 78.015625 8.644531 78.007812 8.882812 77.984375 C 18.074219 77.144531 27.425781 76.585938 36.707031 76.320312 L 36.707031 77.601562 C 32.789062 78.027344 29.304688 78.648438 26.566406 79.410156 C 25.953125 79.585938 24.316406 80.050781 24.316406 81.640625 L 24.316406 86.191406 C 24.316406 87.472656 25.480469 88.476562 26.964844 88.476562 L 73.039062 88.476562 C 74.527344 88.476562 75.6875 87.472656 75.6875 86.191406 L 75.6875 81.640625 C 75.6875 80.050781 74.054688 79.585938 73.433594 79.410156 C 70.699219 78.648438 67.21875 78.027344 63.296875 77.601562 L 63.296875 76.332031 C 72.53125 76.601562 81.882812 77.15625 91.125 77.984375 C 93.371094 78.183594 95.621094 77.417969 97.304688 75.875 C 99.019531 74.308594 100 72.089844 100 69.789062 L 100 19.949219 C 100 17.644531 99.019531 15.425781 97.304688 13.859375 Z M 60.371094 76.253906 L 60.371094 79.308594 L 39.636719 79.308594 L 39.636719 78.9375 C 39.636719 78.933594 39.636719 78.933594 39.636719 78.929688 L 39.636719 76.242188 C 46.578125 76.089844 53.535156 76.09375 60.371094 76.253906 Z M 72.761719 82.261719 L 72.761719 85.546875 L 27.246094 85.546875 L 27.246094 82.261719 C 27.28125 82.253906 27.316406 82.242188 27.359375 82.230469 C 29.894531 81.523438 33.136719 80.941406 36.808594 80.535156 C 37.101562 81.515625 38.011719 82.234375 39.089844 82.234375 L 60.914062 82.234375 C 61.992188 82.234375 62.902344 81.515625 63.199219 80.535156 C 66.867188 80.941406 70.113281 81.523438 72.640625 82.230469 C 72.683594 82.242188 72.726562 82.253906 72.761719 82.261719 Z M 72.761719 82.261719 "/>
</g>
</svg>
