<svg height="512pt" viewBox="0 -60 512 512" width="512pt" xmlns="http://www.w3.org/2000/svg"><g fill-rule="evenodd"><path d="m256.015625 385.5h117.949219c3.347656 0 6.066406-1.898438 6.066406-4.195312v-23.3125c0-2.296876-2.863281-3.285157-6.066406-4.191407-15.703125-4.394531-35.574219-7.652343-57.371094-9.71875h-121.15625c-21.800781 2.066407-41.671875 5.324219-57.375 9.71875-3.203125.90625-6.066406 1.894531-6.066406 4.191407v23.3125c0 2.296874 2.71875 4.195312 6.066406 4.195312zm0 0" fill="#e6e6e6"/><path d="m200.140625 353.546875h111.746094c2.578125 0 4.707031-2.125 4.707031-4.703125v-25.75l-60.664062-16.148438-60.492188 16.089844v25.808594c0 2.578125 2.125 4.703125 4.703125 4.703125zm0 0" fill="#b3b3b3"/><path d="m195.4375 323.035156c40.394531-1.019531 80.757812-1.019531 121.152344.058594 50.261718 1.300781 100.492187 4.21875 150.636718 8.722656 20.042969 1.785156 37.277344-14.503906 37.277344-34.503906v-255.179688c0-20-17.234375-36.285156-37.277344-34.503906-140.574218 12.605469-281.855468 12.835938-422.398437 0-20.097656-1.8125-37.332031 14.476563-37.332031 34.503906v255.179688c0 20.03125 17.234375 36.320312 37.332031 34.503906 50.117187-4.589844 100.347656-7.503906 150.609375-8.78125zm0 0" fill="#616d80"/><path d="m42.136719 302.355469c140.003906-12.777344 282.535156-13.003907 427.726562 0 2.75.253906 5.046875-2.265625 5.046875-5.042969v-255.179688c0-2.773437-2.296875-5.296874-5.046875-5.039062-145.191406 13-287.722656 12.773438-427.726562 0-2.78125-.257812-5.046875 2.265625-5.046875 5.039062v255.179688c0 2.777344 2.265625 5.296875 5.046875 5.042969zm0 0" fill="#bae0f2"/><path d="m201.984375 224.992188v-20.226563c0-3.058594-2.496094-5.550781-5.527344-5.550781h-20.269531c-3.058594 0-5.527344 2.492187-5.527344 5.550781v20.226563c0 3.058593 2.46875 5.550781 5.527344 5.550781h20.269531c3.03125 0 5.527344-2.492188 5.527344-5.550781zm0 0" fill="#eb5757"/><path d="m266.105469 230.542969c3.0625 0 5.554687-2.492188 5.554687-5.550781v-20.226563c0-3.058594-2.492187-5.550781-5.554687-5.550781h-20.238281c-3.0625 0-5.558594 2.492187-5.558594 5.550781v20.226563c0 3.058593 2.496094 5.550781 5.558594 5.550781zm0 0" fill="#e8c745"/><path d="m315.542969 230.542969h20.238281c3.0625 0 5.558594-2.492188 5.558594-5.550781v-20.226563c0-3.058594-2.496094-5.550781-5.558594-5.550781h-20.238281c-3.0625 0-5.554688 2.492187-5.554688 5.550781v20.226563c0 3.058593 2.492188 5.550781 5.554688 5.550781zm0 0" fill="#55cf63"/><path d="m37.089844 169.722656c0-61.414062 0-102.433594 0-127.589844 0-49.574218 0-37.503906 0 1.785157zm0 129.347656c0 129.460938 0-153.679687 0-255.152343v-1.785157c0-.367187.027344-.738281.113281-1.105468 1.332031-16.203125 13.976563-29.40625 29.792969-31.472656-7.398438-.59375-14.796875-1.246094-22.167969-1.925782-20.097656-1.8125-37.332031 14.476563-37.332031 34.503906v255.179688c0 17.394531 13.011718 31.984375 29.59375 34.304688 2.496094.34375 5.074218.425781 7.738281.199218 4.195313-.394531 8.390625-.765625 12.585937-1.132812-11.90625-5.4375-20.324218-17.621094-20.324218-31.613282zm0 0" fill="#3f4c63"/><path d="m68.074219 297.3125v-255.179688c0-.933593.027343-1.898437.113281-2.804687-8.703125-.707031-17.378906-1.441406-26.050781-2.234375-2.410157-.230469-4.453125 1.640625-4.933594 3.9375-.085937.367188-.113281.734375-.113281 1.105469v127.589843 127.589844c0 2.773438 2.269531 5.296875 5.046875 5.039063 8.671875-.792969 17.347656-1.527344 26.050781-2.238281-.085938-.933594-.113281-1.867188-.113281-2.804688zm0 0" fill="#93baf0"/><path d="m219.078125 344.085938v-21.53125c-7.878906.113281-15.761719.285156-23.640625.480468v25.808594c0 2.578125 2.125 4.703125 4.707031 4.703125h23.613281c-2.582031 0-4.679687-2.125-4.679687-4.703125zm0 0" fill="#888b99"/><path d="m138.0625 353.800781c-3.203125.90625-6.066406 1.898438-6.066406 4.191407v23.316406c0 2.292968 2.722656 4.191406 6.066406 4.191406h34.894531c-3.34375 0-6.09375-1.898438-6.09375-4.191406v-23.316406c0-2.292969 2.890625-3.285157 6.09375-4.191407 6.773438-1.898437 14.316407-3.570312 22.480469-5.042969v-4.671874c-21.800781 2.066406-41.671875 5.324218-57.375 9.714843zm0 0" fill="#b3b3b3"/></g><path d="m308.683594 160.292969c1.246094 1.101562 2.578125 1.667969 4.054687 1.667969 1.472657 0 2.777344-.566407 3.855469-1.667969 1.074219-1.105469 1.613281-2.410157 1.613281-3.910157v-34.589843h7.398438c1.363281 0 2.550781-.511719 3.542969-1.5.992187-.992188 1.503906-2.152344 1.503906-3.542969 0-1.445312-.511719-2.660156-1.503906-3.652344-.992188-1.019531-2.179688-1.53125-3.542969-1.53125h-25.992188c-1.359375 0-2.550781.511719-3.515625 1.53125-.964844.992188-1.445312 2.179688-1.445312 3.511719 0 1.472656.507812 2.691406 1.53125 3.65625.992187.960937 2.125 1.445313 3.371094 1.445313h7.457031v34.671874c0 1.5.566406 2.804688 1.671875 3.910157zm0 0"/><path d="m426.464844 114.058594-10.433594 28.214844-10.429688-28.214844c-.964843-2.4375-2.695312-3.652344-5.1875-3.652344-1.558593 0-2.921874.535156-4.054687 1.613281-1.105469 1.078125-1.671875 2.351563-1.671875 3.824219 0 .511719.027344.964844.113281 1.386719.113281.398437.226563.824219.371094 1.246093l15.335937 38.441407c.761719 1.785156 1.527344 3.003906 2.265626 3.597656.738281.597656 1.898437.878906 3.457031.878906 2.355469 0 4.113281-1.472656 5.332031-4.476562l15.335938-38.441407c.3125-.847656.480468-1.699218.480468-2.632812 0-1.5-.566406-2.804688-1.671875-3.851562-1.105469-1.078126-2.46875-1.585938-4.082031-1.585938-2.523438 0-4.253906 1.214844-5.160156 3.652344zm0 0"/><path d="m365.605469 158.929688c1.246093 1.105468 2.578125 1.644531 4.050781 1.644531 1.476562 0 2.78125-.539063 3.855469-1.644531 1.078125-1.105469 1.617187-2.433594 1.617187-3.9375v-34.589844h7.398438c1.363281 0 2.550781-.507813 3.542968-1.472656.992188-.988282 1.503907-2.179688 1.503907-3.566407 0-1.417969-.511719-2.636719-1.503907-3.65625-.992187-1.019531-2.183593-1.527343-3.542968-1.527343h-25.992188c-1.363281 0-2.550781.507812-3.515625 1.527343-.964843 1.019531-1.445312 2.183594-1.445312 3.515625 0 1.472656.507812 2.6875 1.53125 3.652344.992187.964844 2.125 1.472656 3.371093 1.472656h7.457032v34.644532c-.003906 1.503906.5625 2.832031 1.671875 3.9375zm0 0"/><path d="m286.910156 158.988281c1.105469-1.191406 1.675782-2.519531 1.675782-3.996093 0-1.328126-.484376-2.546876-1.476563-3.597657l-11.023437-12.066406c2.832031-.566406 4.960937-1.304687 6.347656-2.210937 3.683594-2.550782 5.527344-6.34375 5.527344-11.386719 0-4.5625-1.644532-8.273438-4.875-11.160157-3.261719-2.890624-7.371094-4.308593-12.332032-4.308593h-12.839844c-1.617187 0-2.976562.539062-4.082031 1.644531s-1.671875 2.492188-1.671875 4.136719v38.808593c0 1.617188.566406 2.972657 1.671875 4.078126 1.246094 1.105468 2.609375 1.644531 4.082031 1.644531 1.558594 0 2.863282-.511719 3.941407-1.585938 1.046875-1.046875 1.585937-2.378906 1.585937-3.9375v-15.101562l14.964844 18.273437c1.304688 1.585938 2.78125 2.351563 4.421875 2.351563 1.589844 0 2.921875-.511719 4.082031-1.585938zm-16.097656-27.253906h-7.316406v-11.273437h7.171875c1.757812 0 3.203125.566406 4.308593 1.671874 1.191407 1.046876 1.789063 2.351563 1.789063 3.851563 0 1.585937-.597656 2.917969-1.757813 4.050781-1.191406 1.132813-2.582031 1.699219-4.195312 1.699219zm0 0"/><path d="m107.445312 151.480469c-1.273437.964843-2.859374 1.445312-4.761718 1.445312-1.898438 0-4.308594-.539062-7.253906-1.585937-2.441407-.878906-4.082032-1.332032-4.90625-1.332032-1.386719 0-2.523438.511719-3.457032 1.53125-.90625 1.019532-1.390625 2.265626-1.390625 3.796876v.339843c0 2.265625 1.589844 4.136719 4.707031 5.609375 3.148438 1.472656 7.058594 2.207032 11.734376 2.207032 5.753906 0 10.375-1.527344 13.863281-4.585938 3.488281-3.089844 5.214843-7.054688 5.214843-11.925781 0-5.183594-2.039062-9.039063-6.148437-11.53125-2.15625-1.386719-5.445313-2.664063-9.808594-3.851563-3.375-.964844-5.386719-1.703125-6.066406-2.210937-.964844-.792969-1.472656-1.644531-1.472656-2.550781 0-1.21875.566406-2.210938 1.644531-3.003907 1.074219-.820312 2.40625-1.21875 3.96875-1.21875.90625 0 2.238281.230469 3.9375.683594l1.984375.707031c1.671875.539063 2.890625.820313 3.6875.820313 1.359375 0 2.519531-.507813 3.484375-1.558594.9375-1.019531 1.417969-2.265625 1.417969-3.679687 0-2.125-1.304688-3.882813-3.914063-5.300782-2.605468-1.386718-5.835937-2.09375-9.691406-2.09375-5.304688 0-9.695312 1.472656-13.125 4.417969-3.460938 2.945313-5.191406 6.6875-5.191406 11.246094 0 4.503906 1.703125 7.875 5.105468 10.085937 1.757813 1.160156 4.988282 2.378906 9.664063 3.738282 3.035156.90625 5.074219 1.585937 6.097656 2.066406.992188.453125 1.699219.992187 2.066407 1.644531.371093.652344.539062 1.417969.539062 2.292969 0 1.558594-.625 2.804687-1.929688 3.796875zm0 0"/><path d="m229.707031 151.960938 2.015625 6.261718c.878906 2.550782 2.578125 3.796875 5.101563 3.796875 1.53125 0 2.804687-.453125 3.882812-1.363281 1.105469-1.074219 1.644531-2.207031 1.644531-3.398438 0-1.1875-.171874-2.292968-.539062-3.3125l-13.550781-36.796874c-1.5-4.136719-4.195313-6.207032-8.078125-6.207032-3.914063 0-6.632813 2.070313-8.136719 6.207032l-13.746094 36.742187c-.339843.820313-.484375 1.753906-.484375 2.746094 0 1.53125.511719 2.804687 1.585938 3.882812 1.050781 1.046875 2.355468 1.585938 3.914062 1.585938 2.835938 0 4.621094-1.304688 5.414063-3.882813l1.84375-6.257812h19.132812zm-9.523437-29.433594 6.152344 19.40625-12.589844-.054688zm0 0"/><path d="m165.332031 158.167969 8.304688-28.246094 4 27.421875c.539062 3.542969 2.4375 5.296875 5.667969 5.296875 1.617187 0 2.949218-.535156 3.996093-1.613281 1.050781-1.078125 1.585938-2.464844 1.585938-4.164063l-.140625-1.105469-6.40625-38.128906c-.339844-1.699218-1.191406-3.117187-2.609375-4.222656-1.386719-1.132812-3.003907-1.699219-4.789063-1.699219-3.828125 0-6.292968 1.871094-7.398437 5.582031l-7.9375 26.316407-7.796875-26.316407c-1.21875-3.710937-3.683594-5.582031-7.398438-5.582031-1.84375 0-3.484375.566407-4.902344 1.726563-1.445312 1.132812-2.296874 2.550781-2.550781 4.195312l-6.4375 38.128906c-.082031.226563-.140625.59375-.140625 1.105469 0 1.644531.539063 3.03125 1.585938 4.136719 1.078125 1.105469 2.410156 1.640625 4.082031 1.640625 3.234375 0 5.074219-1.753906 5.585937-5.296875l3.9375-27.421875 8.308594 28.246094c.964844 3 2.863282 4.472656 5.726563 4.472656 1.699219 0 2.945312-.3125 3.769531-.960937.796875-.652344 1.445312-1.8125 1.957031-3.511719zm0 0"/><path d="m474.910156 160.195312c4.140625 0 7.496094-3.355468 7.496094-7.496093v-110.566407c0-3.570312-1.515625-7-4.160156-9.410156-2.488282-2.269531-5.789063-3.402344-9.050782-3.097656-142.796874 12.789062-286.25 12.789062-426.375.003906-3.328124-.308594-6.554687.792969-9.078124 3.09375-2.636719 2.40625-4.148438 5.835938-4.148438 9.410156v255.179688c0 3.578125 1.511719 7.007812 4.148438 9.414062 2.246093 2.050782 5.046874 3.144532 7.984374 3.144532.363282 0 .726563-.015625 1.089844-.050782 140.132813-12.789062 283.585938-12.785156 426.359375 0 3.277344.296876 6.582031-.824218 9.070313-3.09375 2.644531-2.410156 4.160156-5.839843 4.160156-9.414062v-97.390625c0-4.140625-3.355469-7.496094-7.496094-7.496094s-7.496094 3.355469-7.496094 7.496094v94.691406c-141.59375-12.496093-283.820312-12.5-422.828124-.003906v-249.769531c139.007812 12.492187 281.210937 12.492187 422.828124-.003906v107.863281c0 4.140625 3.355469 7.496093 7.496094 7.496093zm0 0"/><path d="m176.1875 238.039062h20.269531c7.179688 0 13.023438-5.851562 13.023438-13.046874v-20.226563c0-7.195313-5.84375-13.046875-13.023438-13.046875h-20.269531c-7.179688 0-13.023438 5.851562-13.023438 13.046875v20.226563c0 7.195312 5.84375 13.046874 13.023438 13.046874zm1.96875-31.328124h16.332031v16.339843h-16.332031zm0 0"/><path d="m245.867188 238.039062h20.238281c7.195312 0 13.050781-5.851562 13.050781-13.046874v-20.226563c0-7.195313-5.855469-13.046875-13.050781-13.046875h-20.238281c-7.195313 0-13.050782 5.851562-13.050782 13.046875v20.226563c0 7.195312 5.855469 13.046874 13.050782 13.046874zm1.9375-31.328124h16.363281v16.339843h-16.363281zm0 0"/><path d="m315.542969 238.039062h20.238281c7.199219 0 13.054688-5.851562 13.054688-13.046874v-20.226563c0-7.195313-5.855469-13.046875-13.054688-13.046875h-20.238281c-7.195313 0-13.050781 5.851562-13.050781 13.046875v20.226563c0 7.195312 5.855468 13.046874 13.050781 13.046874zm1.941406-31.328124h16.359375v16.339843h-16.359375zm0 0"/><path d="m498.207031 10.964844c-8.621093-7.886719-20.15625-11.824219-31.644531-10.800782-67.902344 6.074219-130.835938 9.160157-192.410156 9.433594-4.140625.015625-7.480469 3.386719-7.460938 7.527344.019532 4.128906 3.367188 7.460938 7.492188 7.460938h.035156c62-.273438 125.351562-3.375 193.675781-9.492188 7.410157-.65625 14.585938 1.800781 20.195313 6.929688 5.667968 5.1875 8.921875 12.519531 8.921875 20.109374v255.179688c0 7.589844-3.253907 14.921875-8.921875 20.109375-5.609375 5.128906-12.78125 7.589844-20.191406 6.929687-50.203126-4.507812-101.046876-7.453124-151.105469-8.753906-39.964844-1.066406-80.859375-1.082031-121.546875-.054687-50.359375 1.273437-101.207032 4.238281-151.121094 8.808593-7.410156.671876-14.59375-1.78125-20.203125-6.90625-5.675781-5.183593-8.929687-12.523437-8.929687-20.132812v-255.179688c0-7.609374 3.253906-14.949218 8.929687-20.136718 5.609375-5.121094 12.777344-7.574219 20.195313-6.902344 62.65625 5.730469 126.308593 8.835938 194.589843 9.492188h.074219c4.105469 0 7.453125-3.308594 7.492188-7.425782.039062-4.136718-3.28125-7.523437-7.421876-7.566406-67.871093-.648438-131.121093-3.734375-193.375-9.429688-11.515624-1.039062-23.042968 2.886719-31.667968 10.765626-8.777344 8.023437-13.808594 19.394531-13.808594 31.203124v255.179688c0 11.8125 5.03125 23.183594 13.808594 31.203125 7.714844 7.046875 17.757812 10.929687 28.023437 10.929687 1.214844 0 2.433594-.050781 3.652344-.164062 47.054687-4.304688 94.941406-7.160156 142.457031-8.523438v6.558594c-20.0625 2.175782-37.902344 5.355469-51.921875 9.273438-3.148437.890625-11.519531 3.261718-11.519531 11.402344v23.316406c0 6.554687 5.957031 11.6875 13.5625 11.6875h235.902344c7.605468 0 13.5625-5.132813 13.5625-11.6875v-23.316406c0-8.140626-8.367188-10.511719-11.542969-11.410157-13.996094-3.910156-31.832031-7.089843-51.894531-9.265625v-6.5c47.261718 1.382813 95.144531 4.214844 142.472656 8.46875 11.496094 1.023438 23.023438-2.914062 31.644531-10.800781 8.765625-8.019531 13.792969-19.382813 13.792969-31.167969v-255.179687c0-11.789063-5.027344-23.152344-13.792969-31.171875zm-189.109375 319.449218v13.714844.023438 1.898437h-106.164062v-1.898437c0-.007813 0-.015625 0-.023438v-13.761718c35.539062-.785157 71.175781-.769532 106.164062.046874zm63.4375 30.773438v16.816406h-233.042968v-16.816406c.179687-.050781.375-.109375.589843-.167969 12.972657-3.628906 29.578125-6.601562 48.375-8.683593 1.507813 5.027343 6.171875 8.707031 11.683594 8.707031h111.746094c5.511719 0 10.175781-3.679688 11.683593-8.707031 18.796876 2.082031 35.402344 5.054687 48.351563 8.675781.226563.0625.429687.121093.613281.175781zm0 0"/></svg>